<svg width="544" height="136" viewBox="0 0 544 136" fill="none" xmlns="http://www.w3.org/2000/svg">
<path d="M323.8 31C325.333 37.8667 326.867 44.8333 328.4 51.9C329.933 58.9667 331.433 65.9667 332.9 72.9C334.433 65.9667 335.967 58.9667 337.5 51.9C339.1 44.8333 340.633 37.8667 342.1 31C344.7 31 347.333 31 350 31C352.667 31 355.3 31 357.9 31C359.5 37.8667 361.1 44.8 362.7 51.8C364.3 58.8 365.9 65.7667 367.5 72.7C369.033 65.7667 370.533 58.8 372 51.8C373.533 44.8 375.033 37.8667 376.5 31C379.167 31 381.833 31 384.5 31C387.233 31 389.933 31 392.6 31C390.133 42.2 387.667 53.5333 385.2 65C382.733 76.4667 380.267 87.8 377.8 99C374.533 99 371.2 99 367.8 99C364.467 99 361.133 99 357.8 99C356.4 92.8 354.967 86.5667 353.5 80.3C352.033 73.9667 350.6 67.7 349.2 61.5C347.867 67.7 346.5 73.9667 345.1 80.3C343.7 86.5667 342.333 92.8 341 99C337.733 99 334.433 99 331.1 99C327.833 99 324.567 99 321.3 99C318.833 87.8 316.367 76.4667 313.9 65C311.433 53.5333 308.967 42.2 306.5 31C309.367 31 312.233 31 315.1 31C318.033 31 320.933 31 323.8 31ZM400.563 99C400.563 87.8 400.563 76.4667 400.563 65C400.563 53.5333 400.563 42.2 400.563 31C407.296 31 414.096 31 420.963 31C427.829 31 434.629 31 441.363 31C441.363 33.5333 441.363 36.1333 441.363 38.8C441.363 41.4667 441.363 44.0667 441.363 46.6C437.496 46.6 433.596 46.6 429.663 46.6C425.796 46.6 421.929 46.6 418.063 46.6C418.063 48.2667 418.063 49.9333 418.063 51.6C418.063 53.2 418.063 54.8333 418.063 56.5C421.596 56.5 425.163 56.5 428.763 56.5C432.363 56.5 435.896 56.5 439.363 56.5C439.363 58.9667 439.363 61.4667 439.363 64C439.363 66.5333 439.363 69.0667 439.363 71.6C435.896 71.6 432.363 71.6 428.763 71.6C425.163 71.6 421.596 71.6 418.063 71.6C418.063 73.5333 418.063 75.5 418.063 77.5C418.063 79.5 418.063 81.4667 418.063 83.4C421.929 83.4 425.796 83.4 429.663 83.4C433.596 83.4 437.496 83.4 441.363 83.4C441.363 85.9333 441.363 88.5333 441.363 91.2C441.363 93.8667 441.363 96.4667 441.363 99C434.629 99 427.829 99 420.963 99C414.096 99 407.296 99 400.563 99ZM453.395 99C453.395 87.8 453.395 76.4667 453.395 65C453.395 53.5333 453.395 42.2 453.395 31C456.328 31 459.261 31 462.195 31C465.128 31 468.028 31 470.895 31C470.895 39.6 470.895 48.3 470.895 57.1C470.895 65.8333 470.895 74.5 470.895 83.1C474.428 83.1 477.995 83.1 481.595 83.1C485.195 83.1 488.728 83.1 492.195 83.1C492.195 85.7 492.195 88.3667 492.195 91.1C492.195 93.7667 492.195 96.4 492.195 99C485.795 99 479.328 99 472.795 99C466.261 99 459.795 99 453.395 99ZM501.734 99C501.734 87.8 501.734 76.4667 501.734 65C501.734 53.5333 501.734 42.2 501.734 31C504.668 31 507.601 31 510.534 31C513.468 31 516.368 31 519.234 31C519.234 39.6 519.234 48.3 519.234 57.1C519.234 65.8333 519.234 74.5 519.234 83.1C522.768 83.1 526.334 83.1 529.934 83.1C533.534 83.1 537.068 83.1 540.534 83.1C540.534 85.7 540.534 88.3667 540.534 91.1C540.534 93.7667 540.534 96.4 540.534 99C534.134 99 527.668 99 521.134 99C514.601 99 508.134 99 501.734 99Z" fill="white"/>
<path d="M64.4136 7.23338C84.0177 7.23338 101.521 16.1019 113.191 29.8715L103.388 38.2733C94.0532 27.3043 80.0502 20.3028 64.4136 20.3028C35.9409 20.3028 13.0694 43.1743 13.0694 71.647C13.0694 100.12 35.9409 122.991 64.4136 122.991C96.6204 122.991 120.659 93.8183 115.058 62.5451L126.027 52.9764C138.396 93.8183 107.823 135.827 64.4136 135.827C28.9394 135.827 0 106.888 0 71.4136C0 35.9394 28.9394 7 64.4136 7V7.23338ZM52.7445 51.1093L70.2482 73.2806L147.498 7L158 19.3693L67.9143 96.6189L39.9084 61.3781L52.5111 51.3427L52.7445 51.1093Z" fill="white"/>
<path d="M184.368 93.388C179.155 97.8653 174.555 100.104 170.568 100.104C166.643 100.104 164.373 98.1413 163.76 94.216C161.92 96.056 159.865 97.4973 157.596 98.54C155.327 99.5827 153.333 100.104 151.616 100.104C148.672 100.104 146.157 98.816 144.072 96.24C141.987 93.664 140.944 89.6773 140.944 84.28C140.944 76.184 142.661 69.836 146.096 65.236C149.531 60.5747 153.395 58.244 157.688 58.244C162.043 58.244 165.692 59.2253 168.636 61.188C170.537 51.252 171.488 43.432 171.488 37.728L171.028 33.864C175.628 32.2693 180.136 31.472 184.552 31.472C185.043 32.5147 185.288 33.7107 185.288 35.06C185.288 39.5373 183.939 48.6453 181.24 62.384C178.541 76.0613 177.192 85.3533 177.192 90.26C177.192 91.732 177.529 92.468 178.204 92.468C178.572 92.468 179.737 91.8853 181.7 90.72L182.62 90.168L184.368 93.388ZM162.196 63.672C160.049 63.672 158.179 65.788 156.584 70.02C155.051 74.252 154.284 78.4533 154.284 82.624C154.284 86.7333 154.56 89.3707 155.112 90.536C155.725 91.7013 156.615 92.284 157.78 92.284C159.804 92.284 161.797 91.456 163.76 89.8C163.944 87.3467 165.324 79.1893 167.9 65.328C165.815 64.224 163.913 63.672 162.196 63.672ZM199.82 100.104C195.588 100.104 192.276 98.632 189.884 95.688C187.492 92.6827 186.296 88.512 186.296 83.176C186.296 76.368 188.105 70.5107 191.724 65.604C195.404 60.6973 200.464 58.244 206.904 58.244L210.216 58.428C211.258 57.876 212.424 57.6 213.712 57.6C218.557 57.6 220.98 62.1693 220.98 71.308C223.494 71.1853 226.04 70.848 228.616 70.296L230.088 69.928L230.64 73.516C228.616 74.3747 225.886 75.1413 222.452 75.816L220.612 76.184C219.446 82.624 217.085 88.236 213.528 93.02C209.97 97.7427 205.401 100.104 199.82 100.104ZM204.788 92.192C207.364 92.192 209.664 90.536 211.688 87.224C213.773 83.912 215.214 80.416 216.012 76.736C209.449 76.736 206.168 74.2827 206.168 69.376C206.168 67.4133 206.566 65.5733 207.364 63.856L207.824 62.936C207.578 62.8133 207.272 62.752 206.904 62.752C206.536 62.752 206.26 62.8133 206.076 62.936C204.542 63.9173 203.101 66.2173 201.752 69.836C200.402 73.4547 199.728 77.5947 199.728 82.256C199.728 88.88 201.414 92.192 204.788 92.192ZM225.721 99.276H223.973C223.973 96.3933 224.831 90.8733 226.549 82.716C228.327 74.5587 229.217 69.928 229.217 68.824C229.217 66.8 228.358 64.6533 226.641 62.384L225.813 61.28L225.905 60.084C229.217 59.164 234.522 58.704 241.821 58.704C242.618 59.7467 243.047 61.648 243.109 64.408C248.445 60.2987 252.953 58.244 256.633 58.244C258.841 58.244 260.589 59.0107 261.877 60.544C263.226 62.0773 263.901 64.0093 263.901 66.34C263.901 68.6093 263.195 72.5653 261.785 78.208C260.374 83.8507 259.669 87.6533 259.669 89.616C259.669 91.5173 259.914 92.468 260.405 92.468C260.773 92.468 262.061 91.8853 264.269 90.72L265.373 90.168L267.029 93.388C266.477 93.8787 265.741 94.492 264.821 95.228C263.901 95.964 262.183 96.976 259.669 98.264C257.215 99.4907 255.007 100.104 253.045 100.104C248.567 100.104 246.329 97.5587 246.329 92.468C246.329 90.3213 247.003 86.3653 248.353 80.6C249.763 74.8347 250.469 71.124 250.469 69.468C250.469 67.812 249.947 66.984 248.905 66.984C247.126 66.984 244.949 67.7507 242.373 69.284C242.189 70.3267 241.575 73.0867 240.533 77.564C238.386 87.1933 237.313 94.0013 237.313 97.988C235.166 98.8467 231.302 99.276 225.721 99.276ZM269.587 83.084C269.587 75.4173 271.887 69.376 276.487 64.96C281.149 60.4827 286.423 58.244 292.311 58.244C295.93 58.244 298.905 59.1333 301.235 60.912C303.566 62.6907 304.731 65.0827 304.731 68.088C304.731 71.032 303.965 73.516 302.431 75.54C300.959 77.564 299.15 79.128 297.003 80.232C292.649 82.3787 288.662 83.728 285.043 84.28L282.835 84.556C283.265 90.3213 285.626 93.204 289.919 93.204C291.391 93.204 292.955 92.836 294.611 92.1C296.267 91.364 297.555 90.628 298.475 89.892L299.855 88.788L302.063 91.732C301.573 92.4067 300.591 93.296 299.119 94.4C297.647 95.504 296.267 96.424 294.979 97.16C291.422 99.1227 287.527 100.104 283.295 100.104C279.063 100.104 275.721 98.6013 273.267 95.596C270.814 92.5907 269.587 88.42 269.587 83.084ZM282.743 80.048C285.871 79.496 288.355 78.1773 290.195 76.092C292.035 74.0067 292.955 71.308 292.955 67.996C292.955 64.684 291.974 63.028 290.011 63.028C287.681 63.028 285.871 65.0213 284.583 69.008C283.357 72.9333 282.743 76.6133 282.743 80.048Z" fill="white"/>
</svg>
